<svg width="620" height="587" viewBox="0 0 620 587" fill="none" xmlns="http://www.w3.org/2000/svg">
<path d="M122.548 277.005C118.821 277.004 115.16 276.025 111.927 274.166L78.1455 254.1C73.0916 251.28 75.5615 250.289 77.2335 249.698C82.5676 248.003 87.6727 245.654 92.4332 242.704C92.8328 242.519 93.2729 242.44 93.7118 242.473C94.1508 242.506 94.5739 242.651 94.9411 242.895L120.895 258.33C121.378 258.584 121.916 258.717 122.462 258.717C123.008 258.717 123.546 258.584 124.03 258.33L225.24 199.752C225.71 199.465 226.098 199.062 226.367 198.581C226.637 198.101 226.779 197.559 226.779 197.008V79.8696C226.779 79.3083 226.636 78.7563 226.363 78.2661C226.09 77.7759 225.697 77.3636 225.221 77.0683L124.125 18.5279C123.65 18.2555 123.113 18.1121 122.567 18.1121C122.02 18.1121 121.483 18.2555 121.009 18.5279L19.8737 77.0683C19.3873 77.3521 18.9828 77.7577 18.6997 78.2454C18.4166 78.7332 18.2647 79.2862 18.2587 79.8505V196.97C18.2574 197.523 18.4027 198.067 18.6798 198.546C18.9568 199.025 19.3557 199.421 19.8357 199.695L47.4991 215.759C62.5468 223.381 71.7426 214.406 71.7426 205.469V89.855C71.7374 89.4691 71.8097 89.0861 71.9552 88.7287C72.1006 88.3714 72.3163 88.0471 72.5893 87.775C72.8623 87.503 73.187 87.2888 73.5442 87.1453C73.9015 87.0017 74.2838 86.9317 74.6686 86.9394H87.4933C87.8757 86.9369 88.2549 87.0106 88.6087 87.1562C88.9625 87.3018 89.284 87.5165 89.5544 87.7877C89.8249 88.059 90.0389 88.3814 90.1841 88.7363C90.3293 89.0912 90.4028 89.4714 90.4002 89.855V205.507C90.4002 225.63 79.4565 237.197 60.4379 237.197C54.586 237.197 49.9691 237.197 37.1063 230.851L10.5069 215.492C7.29746 213.591 4.63935 210.882 2.79628 207.633C0.953218 204.384 -0.0107287 200.708 9.00733e-05 196.97V79.8505C-0.00920925 76.1018 0.967874 72.4169 2.83268 69.1681C4.69748 65.9192 7.38397 63.2214 10.6209 61.347L111.927 2.73036C115.189 0.938974 118.848 0 122.567 0C126.285 0 129.944 0.938974 133.206 2.73036L234.379 61.3661C237.625 63.2388 240.323 65.9337 242.204 69.181C244.084 72.4284 245.081 76.1142 245.095 79.8696V197.008C245.084 200.75 244.098 204.424 242.235 207.666C240.372 210.908 237.697 213.606 234.474 215.492L133.206 274.109C129.961 275.99 126.277 276.976 122.529 276.967L122.548 277.005ZM153.897 196.284C109.628 196.284 100.337 175.893 100.337 158.8C100.337 158.04 100.633 157.31 101.161 156.765C101.69 156.22 102.41 155.904 103.168 155.885H116.24C116.938 155.89 117.612 156.143 118.141 156.601C118.67 157.058 119.02 157.689 119.128 158.381C121.028 171.72 126.974 178.485 153.764 178.485C175.082 178.485 184.163 173.645 184.163 162.306C184.163 155.77 181.579 150.873 148.444 147.671C120.724 144.927 103.605 138.791 103.605 116.572C103.605 96.0864 120.819 83.8523 149.679 83.8523C181.978 83.8523 198.147 95.1336 200.161 119.373C200.194 119.784 200.142 120.198 200.008 120.589C199.874 120.979 199.661 121.337 199.382 121.641C198.818 122.225 198.046 122.561 197.235 122.574H184.087C183.424 122.574 182.781 122.347 182.263 121.931C181.746 121.516 181.384 120.936 181.237 120.288C178.083 106.243 170.427 101.746 149.622 101.746C126.348 101.746 123.631 109.864 123.631 115.962C123.631 123.356 126.822 125.49 158.248 129.682C189.35 133.837 204.113 139.668 204.113 161.601C204.113 183.535 185.721 196.379 153.65 196.379" fill="white"/>
<path d="M578.705 294.347L554.912 243.795L531.056 193.241L507.263 142.69L432.718 115.815L77.3823 281.611L50.4223 355.839L74.2151 406.39L121.798 507.556L196.407 534.434L551.742 368.638L578.705 294.347Z" fill="white"/>
<path d="M195.051 566.13C191.814 565.983 188.617 565.354 185.566 564.264L111.02 537.389C107.077 535.973 103.454 533.796 100.357 530.983C97.26 528.169 94.7508 524.775 92.9729 520.995L21.5946 369.341C19.8094 365.563 18.7908 361.47 18.597 357.299C18.4033 353.128 19.0384 348.96 20.4658 345.034L47.6804 270.817C50.5638 262.912 56.4818 256.473 64.1333 252.914L419.023 87.0987C422.835 85.306 426.966 84.2847 431.178 84.0942C435.39 83.9036 439.598 84.5475 443.558 85.9886L518.093 113.117C522.036 114.533 525.659 116.711 528.756 119.524C531.853 122.337 534.362 125.731 536.14 129.511L607.518 281.165C611.107 288.779 611.514 297.499 608.65 305.409L581.698 379.446C580.263 383.366 578.065 386.964 575.231 390.036C572.397 393.108 568.982 395.592 565.182 397.347L209.91 563.146C205.276 565.334 200.175 566.359 195.051 566.13V566.13ZM145.074 482.199L194.812 500.138L526.269 345.451L544.011 295.913L484.05 168.054L434.312 150.114L102.849 304.929L84.8584 354.328L145.074 482.199Z" fill="white"/>
<path d="M196.408 534.434L121.799 507.557L74.2164 406.39L101.176 332.163L456.512 166.367L551.744 368.638L196.408 534.434Z" fill="#00FFAC"/>
<path d="M196.338 536.018L195.765 535.994L121.291 508.932C120.886 508.77 120.557 508.461 120.372 508.067L72.7807 407.091C72.638 406.698 72.6565 406.265 72.8322 405.886L99.7921 331.659C99.8629 331.453 99.9769 331.265 100.127 331.107C100.276 330.949 100.458 330.825 100.66 330.743L455.868 164.942C456.055 164.853 456.259 164.803 456.466 164.794C456.673 164.786 456.879 164.819 457.073 164.893C457.267 164.967 457.443 165.079 457.592 165.222C457.741 165.366 457.859 165.538 457.939 165.729L553.174 367.937C553.316 368.33 553.298 368.762 553.122 369.141C553.052 369.347 552.937 369.535 552.788 369.693C552.638 369.851 552.456 369.975 552.254 370.057L197.046 535.858C196.831 535.979 196.584 536.035 196.338 536.018V536.018ZM122.999 506.274L196.288 532.714L549.607 367.848L456.099 168.508L102.401 333.294L75.9376 406.337L122.999 506.274Z" fill="#3D3DFF"/>
<path d="M214.327 371.865L101.175 332.163L456.51 166.367L494.118 241.323L214.327 371.865Z" fill="#00FFAC"/>
<path d="M214.443 373.585L96.9563 332.363L457.235 164.302L496.312 242.179L214.443 373.585ZM105.391 331.962L214.271 370.148L491.98 240.597L455.78 168.494L105.391 331.962Z" fill="#3D3DFF"/>
<path d="M527.942 318.025L492.238 242.183L214.373 371.837L250.076 447.678L527.942 318.025Z" fill="#00FFAC"/>
<path d="M249.981 449.278C249.695 449.267 249.417 449.178 249.177 449.023C248.936 448.867 248.743 448.65 248.616 448.394L212.895 372.566C212.752 372.173 212.771 371.74 212.946 371.361C213.017 371.156 213.131 370.968 213.281 370.81C213.431 370.652 213.613 370.528 213.815 370.446L491.528 240.768C491.918 240.603 492.356 240.593 492.753 240.74C493.15 240.887 493.476 241.179 493.663 241.558L529.384 317.386C529.549 317.774 529.56 318.211 529.412 318.606C529.265 319.001 528.971 319.325 528.591 319.511L250.498 449.11L249.981 449.278ZM216.462 372.655L250.647 445.623L525.816 317.297L491.44 244.32L216.462 372.655Z" fill="#3D3DFF"/>
<path d="M456.52 166.375L432.718 115.814L77.3819 281.616L101.184 332.177L456.52 166.375Z" fill="#00FFAC"/>
<path d="M101.106 333.747C100.82 333.736 100.542 333.647 100.302 333.492C100.061 333.336 99.8676 333.119 99.7409 332.863L75.9481 282.312C75.8551 282.125 75.8002 281.921 75.7865 281.712C75.7728 281.504 75.8006 281.295 75.8683 281.097C75.936 280.899 76.0423 280.717 76.1811 280.56C76.3198 280.403 76.4883 280.275 76.6768 280.184L432.076 114.391C432.27 114.317 432.478 114.283 432.686 114.292C432.894 114.301 433.098 114.352 433.285 114.442C433.654 114.604 433.956 114.886 434.144 115.241L457.934 165.856C458.026 166.038 458.08 166.237 458.093 166.441C458.106 166.645 458.078 166.849 458.01 167.041C457.942 167.234 457.837 167.411 457.699 167.562C457.561 167.713 457.394 167.835 457.208 167.92L101.878 333.59L101.106 333.747ZM79.5154 282.401L101.955 330.291L454.372 165.64L431.924 117.94L79.5154 282.401Z" fill="#3D3DFF"/>
<path d="M456.509 166.367L416.099 277.741L451.757 353.567L551.741 368.638L578.704 294.347L531.054 193.242L456.509 166.367Z" fill="#00FFAC"/>
<path d="M552.749 370.396L450.672 355.045L414.374 277.795L414.399 277.224L455.369 164.667L532.052 192.268L580.427 294.293L552.749 370.396ZM452.837 352.152L550.667 366.877L576.976 294.463L530.233 194.54L457.503 168.441L417.823 277.688L452.837 352.152Z" fill="#3D3DFF"/>
<path d="M432.718 115.815L507.263 142.69L531.056 193.241L456.511 166.367L432.718 115.815Z" fill="white"/>
<path d="M531.048 194.829L530.539 194.807L456.007 167.615C455.805 167.556 455.617 167.453 455.458 167.315C455.299 167.177 455.172 167.006 455.085 166.814L431.292 116.262C431.117 115.996 431.03 115.681 431.043 115.363C431.057 115.044 431.171 114.738 431.368 114.488C431.581 114.25 431.861 114.081 432.171 114.004C432.482 113.926 432.808 113.944 433.108 114.054L507.834 141.191C508.211 141.367 508.53 141.644 508.756 141.992L532.546 192.607C532.693 192.871 532.763 193.171 532.75 193.473C532.738 193.775 532.642 194.067 532.473 194.318C532.297 194.514 532.074 194.664 531.826 194.753C531.577 194.842 531.31 194.868 531.048 194.829ZM457.71 165.084L527.984 190.443L505.866 143.964L435.783 118.614L457.71 165.084Z" fill="#3D3DFF"/>
<path d="M196.406 534.434L250.047 447.693L451.757 353.567L551.741 368.638L196.406 534.434Z" fill="#00FFAC"/>
<path d="M196.338 536.018C196.123 536.006 195.912 535.951 195.719 535.855C195.526 535.76 195.354 535.626 195.214 535.462C195.013 535.193 194.912 534.864 194.926 534.529C194.94 534.194 195.07 533.875 195.293 533.624L248.928 447.01C249.101 446.761 249.328 446.554 249.592 446.404L451.302 352.277C451.598 352.224 451.903 352.237 452.193 352.315L552.114 367.384C552.455 367.422 552.774 367.574 553.018 367.815C553.262 368.056 553.418 368.372 553.46 368.711C553.512 369.05 553.452 369.397 553.29 369.699C553.128 370.001 552.871 370.242 552.559 370.387L197.047 535.858C196.831 535.979 196.585 536.035 196.338 536.018V536.018ZM251.077 448.944L200.518 530.736L546.288 369.421L452.196 355.237L251.077 448.944Z" fill="#3D3DFF"/>
<path d="M101.175 332.162L77.3823 281.611L50.4223 355.839L74.2151 406.39L101.175 332.162Z" fill="white"/>
<path d="M74.1486 407.975C73.8623 407.963 73.5844 407.875 73.3441 407.72C73.1039 407.564 72.9102 407.347 72.7835 407.091L48.9907 356.54C48.848 356.147 48.8665 355.714 49.0422 355.335L75.8776 281.039C75.9972 280.75 76.1966 280.501 76.4526 280.321C76.7087 280.141 77.0109 280.037 77.324 280.021C77.634 280.001 77.9428 280.075 78.2095 280.234C78.4761 280.393 78.6878 280.629 78.8164 280.91L102.479 331.52C102.553 331.713 102.587 331.92 102.578 332.127C102.569 332.334 102.518 332.537 102.428 332.724L75.7224 406.963C75.6095 407.256 75.4119 407.509 75.1544 407.69C74.8969 407.871 74.5911 407.972 74.2759 407.98L74.1486 407.975ZM52.1477 355.786L73.947 402.251L99.3886 332.213L77.5893 285.748L52.1477 355.786Z" fill="#3D3DFF"/>
<path d="M451.76 353.567L551.747 368.575L578.709 294.283L554.917 243.732C555.594 270.989 545.971 297.501 527.954 318.023C518.231 328.654 506.495 337.266 493.42 343.366C480.344 349.465 466.187 352.932 451.76 353.567Z" fill="white"/>
<path d="M551.675 370.223L451.564 355.146C451.166 355.097 450.8 354.9 450.542 354.595C450.283 354.29 450.149 353.898 450.167 353.499C450.209 353.109 450.384 352.745 450.663 352.468C450.942 352.191 451.307 352.017 451.699 351.977C480.363 350.702 507.344 338.152 526.718 317.081C544.515 296.9 554.012 270.773 553.313 243.918C553.3 243.552 553.414 243.194 553.635 242.902C553.857 242.611 554.173 242.405 554.53 242.319C554.89 242.237 555.267 242.282 555.597 242.447C555.928 242.611 556.19 242.885 556.34 243.222L580.141 293.583C580.284 293.975 580.265 294.408 580.09 294.787L553.252 369.147C553.133 369.467 552.917 369.742 552.635 369.934C552.353 370.127 552.017 370.228 551.675 370.223V370.223ZM464.376 353.789L550.673 366.814L576.982 294.4L556.463 250.784C555.704 275.999 546.062 300.142 529.226 318.985C512.39 337.828 489.432 350.171 464.373 353.852L464.376 353.789Z" fill="#3D3DFF"/>
<path d="M471.184 250.893C480.218 251.566 488.085 244.814 488.756 235.812C489.426 226.809 482.647 218.966 473.613 218.292C464.579 217.619 456.713 224.371 456.042 233.373C455.371 242.376 462.151 250.219 471.184 250.893Z" fill="white"/>
<path fill-rule="evenodd" clip-rule="evenodd" d="M471.399 248.016C478.856 248.572 485.33 243 485.881 235.597C486.433 228.195 480.856 221.725 473.399 221.169C465.941 220.613 459.468 226.185 458.917 233.587C458.365 240.99 463.941 247.46 471.399 248.016ZM488.756 235.812C488.085 244.814 480.218 251.566 471.184 250.893C462.151 250.219 455.371 242.376 456.042 233.373C456.713 224.371 464.579 217.619 473.613 218.292C482.647 218.966 489.426 226.809 488.756 235.812Z" fill="#3D3DFF"/>
<path d="M507.263 142.69L456.511 166.367L432.718 115.815L507.263 142.69Z" fill="#00FFAC"/>
<path d="M456.439 167.951C456.153 167.94 455.875 167.852 455.635 167.696C455.395 167.54 455.201 167.323 455.074 167.067L431.281 116.516C431.106 116.249 431.019 115.935 431.033 115.616C431.046 115.298 431.16 114.992 431.357 114.741C431.57 114.503 431.85 114.334 432.16 114.257C432.471 114.18 432.797 114.197 433.098 114.307L507.834 141.19C508.129 141.303 508.383 141.5 508.565 141.756C508.747 142.013 508.848 142.317 508.857 142.631C508.887 142.941 508.816 143.253 508.656 143.52C508.495 143.788 508.253 143.997 507.964 144.117L457.217 167.667C456.985 167.823 456.718 167.921 456.439 167.951ZM435.783 118.614L457.31 163.988L502.862 142.629L435.783 118.614Z" fill="#3D3DFF"/>
<path d="M101.174 332.163L77.3809 281.611L229.639 210.582C178.425 241.266 134.578 282.742 101.176 332.099L101.174 332.163Z" fill="white"/>
<path d="M101.108 333.747C100.829 333.739 100.559 333.651 100.328 333.495C100.098 333.339 99.9169 333.121 99.8065 332.866L76.0138 282.315C75.9208 282.127 75.8658 281.924 75.8522 281.715C75.8385 281.507 75.8663 281.298 75.934 281.1C76.0017 280.902 76.108 280.72 76.2467 280.563C76.3854 280.406 76.5539 280.278 76.7424 280.187L228.876 209.089C229.249 208.921 229.672 208.903 230.058 209.037C230.444 209.172 230.763 209.45 230.949 209.812C231.047 209.987 231.108 210.18 231.131 210.379C231.154 210.577 231.137 210.779 231.081 210.971C231.025 211.163 230.932 211.343 230.807 211.499C230.682 211.655 230.527 211.786 230.351 211.882C197.336 231.721 167.292 256.09 141.103 284.272C126.963 299.51 114.028 315.815 102.414 333.041C102.284 333.269 102.093 333.456 101.863 333.581C101.632 333.706 101.37 333.763 101.108 333.747ZM79.5174 282.401L101.439 328.999C112.737 312.474 125.258 296.813 138.898 282.146C159.839 259.571 183.269 239.419 208.744 222.072L79.5174 282.401Z" fill="#3D3DFF"/>
<path d="M250.047 447.693L214.327 371.865L416.037 277.739C371.649 296.634 332.291 325.565 301.082 362.238C279.512 387.765 262.274 416.63 250.047 447.693V447.693Z" fill="white"/>
<path d="M249.981 449.278C249.695 449.267 249.417 449.178 249.177 449.023C248.936 448.867 248.743 448.65 248.616 448.394L212.895 372.566C212.752 372.173 212.771 371.74 212.946 371.361C213.017 371.156 213.131 370.968 213.281 370.81C213.431 370.652 213.613 370.528 213.815 370.446L396.659 285.039C402.786 281.935 409.088 279.22 415.462 276.317C415.824 276.228 416.206 276.269 416.541 276.432C416.876 276.595 417.143 276.87 417.296 277.209C417.448 277.548 417.477 277.93 417.375 278.288C417.274 278.645 417.051 278.956 416.743 279.166L398.068 287.893C361.441 306.428 328.891 332.043 302.316 363.244C280.838 388.626 263.689 417.349 251.555 448.266C251.435 448.554 251.236 448.803 250.98 448.983C250.724 449.164 250.422 449.268 250.108 449.284L249.981 449.278ZM216.462 372.655L249.89 443.94C273.23 386.3 313.661 337.121 365.794 302.961L216.462 372.655Z" fill="#3D3DFF"/>
<path d="M451.76 353.567L427.967 303.016L401.007 377.243L451.76 353.567Z" fill="white"/>
<path d="M400.938 378.828C400.576 378.806 400.227 378.68 399.933 378.468C399.694 378.256 399.525 377.977 399.447 377.668C399.369 377.359 399.387 377.033 399.497 376.734L426.457 302.507C426.567 302.206 426.763 301.943 427.02 301.751C427.278 301.559 427.586 301.446 427.907 301.425C428.223 301.411 428.537 301.495 428.804 301.665C429.071 301.836 429.278 302.085 429.396 302.378L453.253 352.932C453.418 353.32 453.429 353.757 453.281 354.152C453.134 354.547 452.84 354.871 452.46 355.058L401.708 378.734C401.463 378.828 401.199 378.86 400.938 378.828V378.828ZM428.172 307.152L403.815 374.188L449.685 352.843L428.172 307.152Z" fill="#3D3DFF"/>
<path d="M250.046 447.693L109.931 482.282L121.796 507.556L196.405 534.434L250.046 447.693Z" fill="white"/>
<path d="M196.34 536.018L195.767 535.994L121.293 508.932C120.887 508.77 120.559 508.461 120.374 508.067L108.755 482.994C108.653 482.784 108.604 482.553 108.614 482.321C108.624 482.088 108.692 481.862 108.812 481.662C108.915 481.453 109.063 481.269 109.246 481.123C109.429 480.977 109.641 480.873 109.869 480.818L249.983 446.23C250.298 446.141 250.633 446.152 250.942 446.26C251.25 446.368 251.519 446.568 251.709 446.833C251.9 447.098 252.004 447.414 252.008 447.74C252.011 448.066 251.914 448.385 251.729 448.654L198.03 535.265C197.87 535.558 197.618 535.79 197.312 535.926C197.007 536.062 196.665 536.094 196.34 536.018ZM123.001 506.274L195.916 532.508L246.815 450.222L112.193 483.14L123.001 506.274Z" fill="#3D3DFF"/>
<path d="M138.478 345.633L87.7251 369.309L101.175 332.162L138.478 345.633Z" fill="white"/>
<path d="M87.6563 370.894C87.28 370.886 86.9212 370.734 86.6541 370.47C86.415 370.258 86.2456 369.98 86.1678 369.67C86.09 369.361 86.1075 369.036 86.2181 368.737L99.6649 331.653C99.7317 331.449 99.8395 331.26 99.9818 331.098C100.124 330.937 100.298 330.806 100.493 330.713C100.688 330.62 100.899 330.568 101.115 330.559C101.331 330.551 101.546 330.586 101.748 330.663L138.987 344.131C139.285 344.228 139.547 344.412 139.741 344.657C139.935 344.903 140.051 345.2 140.076 345.511C140.078 345.832 139.989 346.148 139.82 346.421C139.65 346.695 139.407 346.915 139.117 347.057L88.3647 370.734C88.1492 370.855 87.9031 370.91 87.6563 370.894V370.894ZM101.981 334.166L90.4057 366.249L134.199 345.767L101.981 334.166Z" fill="#3D3DFF"/>
</svg>
