<svg width="658" height="682" viewBox="0 0 658 682" fill="none" xmlns="http://www.w3.org/2000/svg">
  <path d="M610.551 454.929L436.744 58.9295C434.306 53.3509 429.734 48.9617 424.035 46.7268C418.335 44.4919 411.974 44.5943 406.351 47.0115L59.3755 196.798C53.7693 199.236 49.3613 203.774 47.1115 209.422C44.8617 215.07 44.9523 221.372 47.3637 226.954L220.988 622.954C223.446 628.516 228.019 632.89 233.711 635.122C239.404 637.354 245.755 637.264 251.381 634.872L598.63 485.175C604.243 482.721 608.647 478.161 610.881 472.493C613.115 466.825 612.996 460.51 610.551 454.929ZM536.296 392.902C536.296 392.45 536.296 391.999 536.296 391.548C536.296 391.096 536.205 392.45 536.296 392.902ZM490.797 286.544L484.245 271.556L412.266 107.233L490.797 286.544ZM108.605 221.717L242.646 163.933L108.605 221.717C107.655 222.155 106.742 222.669 105.875 223.252C106.596 222.688 107.357 222.175 108.15 221.717H108.605ZM132.811 315.977L135.814 322.658L100.234 241.4L132.811 315.977ZM341.469 488.787L527.742 408.612C528.727 408.244 529.649 407.727 530.472 407.077C529.649 407.727 528.727 408.244 527.742 408.612L341.469 488.787ZM530.563 406.264C531.203 405.828 531.784 405.312 532.292 404.73C531.784 405.312 531.203 405.828 530.563 406.264ZM535.477 399.673C535.181 400.383 534.847 401.076 534.476 401.75C534.836 401.194 535.17 400.621 535.477 400.035V399.673ZM534.203 402.292C533.77 402.961 533.283 403.595 532.747 404.188C533.268 403.711 533.755 403.198 534.203 402.653V402.292ZM536.296 395.791C536.341 395.22 536.341 394.647 536.296 394.076C536.362 394.766 536.362 395.462 536.296 396.152V395.791ZM535.75 398.68C535.802 398.079 535.802 397.475 535.75 396.875C535.825 397.595 535.825 398.321 535.75 399.041V398.68Z" fill="white"/>
  <path d="M242.279 682C228.887 681.999 215.787 678.12 204.585 670.839C193.383 663.557 184.567 653.19 179.217 641.01L5.68393 245.01C-1.56767 228.451 -1.89299 209.713 4.77952 192.916C11.452 176.12 24.5758 162.641 41.2642 155.445L388.422 5.65843C405.112 -1.54554 424.002 -1.88372 440.944 4.71813C457.885 11.32 471.494 24.3223 478.783 40.8704L652.316 436.96C659.568 453.519 659.893 472.257 653.221 489.054C646.548 505.85 633.424 519.329 616.736 526.525L269.487 676.312C260.904 680.031 251.645 681.966 242.279 682V682ZM156.65 363.015L253.745 584.67L559.953 452.58L556.131 443.551C552.834 445.902 549.296 447.899 545.575 449.51V449.51L359.575 530.227C354.096 532.593 348.201 533.865 342.227 533.97C336.252 534.075 330.316 533.011 324.755 530.84C319.195 528.668 314.121 525.431 309.821 521.314C305.522 517.197 302.082 512.279 299.699 506.843C297.314 501.407 296.033 495.558 295.927 489.63C295.821 483.702 296.893 477.812 299.081 472.295C301.27 466.778 304.532 461.743 308.682 457.478C312.832 453.212 317.788 449.799 323.267 447.434L494.343 373.579C498.573 363.919 506.073 356.03 515.546 351.278L505.809 329.067C494.934 332.923 482.987 332.531 472.392 327.97C461.797 323.41 453.346 315.023 448.753 304.509L370.131 125.289C368.484 121.481 367.352 117.474 366.764 113.371L284.866 148.673C288.752 159.464 288.357 171.317 283.761 181.829C279.164 192.342 270.711 200.726 260.114 205.283L153.92 251.24L174.576 297.918L177.488 304.599C182.183 315.136 182.64 327.055 178.766 337.915C174.892 348.775 166.98 357.755 156.65 363.015V363.015Z" fill="white"/>
  <path d="M406.624 47.0117L59.3755 196.798C53.7693 199.237 49.3613 203.774 47.1115 209.422C44.8617 215.07 44.9523 221.372 47.3637 226.954L220.988 622.954C223.446 628.516 228.019 632.89 233.711 635.122C239.404 637.354 245.755 637.264 251.381 634.872L598.63 485.176C604.243 482.721 608.647 478.161 610.881 472.493C613.115 466.825 612.996 460.511 610.551 454.929L436.744 58.9297C434.305 53.4187 429.779 49.0803 424.144 46.8506C418.509 44.621 412.216 44.6788 406.624 47.0117V47.0117ZM535.204 388.659C536.849 392.291 536.988 396.419 535.592 400.152C534.196 403.885 531.377 406.923 527.742 408.612L243.647 531.041C241.801 531.832 239.815 532.254 237.805 532.283C235.794 532.312 233.798 531.946 231.93 531.208C230.062 530.47 228.359 529.374 226.918 527.982C225.478 526.59 224.329 524.93 223.536 523.096L100.052 241.761C98.4325 238.061 98.3564 233.874 99.84 230.118C101.324 226.362 104.246 223.341 107.968 221.717L391.7 99.288C395.43 97.6816 399.65 97.6061 403.435 99.0781C407.221 100.55 410.265 103.45 411.902 107.143L535.204 388.659Z" fill="white"/>
  <path d="M242.191 639.115C237.238 639.127 232.39 637.697 228.249 635C224.108 632.304 220.856 628.461 218.896 623.947L45.4535 227.857C44.1494 224.816 43.4773 221.546 43.4773 218.241C43.4773 214.937 44.1494 211.667 45.4535 208.626C46.6547 205.537 48.4644 202.716 50.7768 200.329C53.0892 197.941 55.8579 196.035 58.9212 194.722L405.715 45.1158C408.772 43.7871 412.065 43.0718 415.402 43.0113C418.739 42.9507 422.056 43.5461 425.16 44.763C428.264 45.98 431.095 47.7944 433.49 50.1019C435.884 52.4093 437.795 55.1641 439.111 58.2074L612.644 454.027C613.926 457.089 614.586 460.372 614.586 463.687C614.586 467.003 613.926 470.286 612.644 473.348C611.525 476.459 609.788 479.316 607.538 481.751C605.287 484.185 602.568 486.148 599.541 487.523L252.292 637.039C249.096 638.383 245.663 639.089 242.191 639.115ZM415.816 47.373C412.964 47.3585 410.142 47.9432 407.535 49.0884V49.0884L60.2862 198.604C55.2429 200.786 51.274 204.858 49.2453 209.933C47.2167 215.007 47.2929 220.671 49.4574 225.69L223.082 622.141C225.281 627.145 229.385 631.083 234.5 633.096C239.614 635.109 245.323 635.033 250.381 632.885L597.721 483.099C602.732 480.882 606.664 476.801 608.673 471.735C610.681 466.669 610.604 461.023 608.458 456.013L434.925 59.8326C433.311 56.1336 430.642 52.9836 427.247 50.7699C423.851 48.5562 419.878 47.3755 415.816 47.373ZM237.641 534.924C235.428 534.896 233.239 534.467 231.181 533.66C229.048 532.868 227.096 531.661 225.44 530.11C223.784 528.56 222.456 526.697 221.535 524.631L98.1413 242.664C97.2404 240.55 96.7761 238.278 96.7761 235.983C96.7761 233.688 97.2404 231.416 98.1413 229.302C99.8344 225.056 103.086 221.604 107.241 219.641L391.246 97.3018C395.546 95.5951 400.339 95.5789 404.651 97.2564C408.962 98.9338 412.466 102.179 414.451 106.33L537.298 388.207C539.02 392.497 539.02 397.279 537.298 401.57C536.491 403.681 535.271 405.613 533.71 407.255C532.148 408.897 530.275 410.218 528.198 411.14L244.557 532.667C242.382 533.781 239.995 534.427 237.55 534.563L237.641 534.924ZM397.798 100.372C396.013 100.383 394.249 100.752 392.611 101.455L109.152 223.794C106.006 225.198 103.528 227.753 102.236 230.927C101.56 232.497 101.212 234.186 101.212 235.893C101.212 237.6 101.56 239.289 102.236 240.858L225.63 522.193C227.004 525.332 229.547 527.823 232.727 529.145C235.935 530.45 239.53 530.45 242.737 529.145L526.378 406.265C529.524 404.861 532.002 402.305 533.294 399.132C534.609 395.95 534.609 392.382 533.294 389.2V389.2L409.446 108.317C408.774 106.752 407.792 105.338 406.556 104.159C405.321 102.98 403.859 102.06 402.257 101.455C400.837 100.864 399.332 100.498 397.798 100.372V100.372Z" fill="#3D3DFF"/>
  <path d="M332.824 203.75C354.267 207.44 373.914 217.963 388.788 233.726C413.292 257.604 446.17 271.131 480.514 271.466H483.881L411.902 107.143C410.265 103.45 407.221 100.55 403.435 99.0781C399.649 97.6061 395.43 97.6815 391.7 99.288L256.932 157.523C260.381 162.223 264.216 166.632 268.398 170.705C286.065 187.857 308.505 199.366 332.824 203.75V203.75Z" fill="#FFD0EE"/>
  <path d="M483.881 273.813H480.423C445.476 273.503 412.023 259.709 387.15 235.351C372.629 219.967 353.471 209.671 332.551 206.008V206.008C307.765 201.562 284.885 189.866 266.85 172.421C262.498 168.196 258.454 163.671 254.748 158.878C254.596 158.584 254.517 158.259 254.517 157.93C254.517 157.6 254.596 157.275 254.748 156.982C254.821 156.644 254.975 156.328 255.197 156.061C255.418 155.794 255.701 155.583 256.022 155.447L391.245 97.3019C395.544 95.5952 400.338 95.579 404.649 97.2565C408.96 98.9339 412.465 102.179 414.449 106.331L485.974 270.834C486.13 271.174 486.21 271.544 486.21 271.917C486.21 272.291 486.13 272.661 485.974 273.001C485.72 273.298 485.396 273.528 485.031 273.669C484.665 273.811 484.27 273.861 483.881 273.813V273.813ZM333.279 201.584C355.198 205.342 375.271 216.125 390.426 232.281C414.489 255.678 446.734 268.941 480.423 269.299L409.444 108.317C408.773 106.752 407.79 105.338 406.555 104.159C405.32 102.98 403.857 102.06 402.255 101.455C399.048 100.151 395.453 100.151 392.246 101.455L260.481 158.517C263.449 162.225 266.639 165.753 270.035 169.08C287.468 186.038 309.682 197.342 333.734 201.493L333.279 201.584Z" fill="#3D3DFF"/>
  <path d="M475.42 385.047C466.32 381.616 458.312 377.734 450.032 373.58C448.057 383.801 443.654 393.407 437.189 401.602C430.725 409.796 422.384 416.344 412.859 420.701C403.334 425.058 392.899 427.098 382.42 426.654C371.941 426.209 361.72 423.292 352.604 418.145C343.489 412.997 335.742 405.767 330.005 397.055C324.269 388.343 320.709 378.399 319.621 368.048C318.532 357.698 319.947 347.239 323.747 337.54C327.547 327.84 333.623 319.179 341.471 312.275C328.503 305.971 314.979 300.863 301.068 297.017C256.921 286.063 210.521 288.038 167.483 302.705C155.673 306.448 144.096 310.88 132.812 315.977L191.051 449.331C210.589 447.25 230.327 447.98 249.654 451.498C281.35 457.656 311.147 471.108 336.648 490.773L527.744 408.612C529.67 407.744 531.398 406.496 532.822 404.944C534.246 403.392 535.335 401.568 536.025 399.583C515.279 397.331 494.912 392.445 475.42 385.047V385.047Z" fill="#00FFAC"/>
  <path d="M336.645 493.392L335.644 492.579C310.38 473.121 280.862 459.822 249.469 453.756C230.219 450.115 210.532 449.323 191.048 451.408H189.41L129.897 315.165L131.899 314.172C143.277 308.973 154.944 304.421 166.843 300.538C210.248 285.661 257.088 283.684 301.611 294.85C315.666 298.742 329.34 303.879 342.469 310.199L345.563 311.734L343.015 313.991C335.413 320.648 329.523 329.009 325.834 338.38C322.144 347.75 320.763 357.859 321.804 367.866C322.846 377.873 326.279 387.489 331.82 395.914C337.361 404.339 344.849 411.33 353.661 416.305C362.474 421.281 372.356 424.097 382.486 424.521C392.616 424.944 402.702 422.962 411.904 418.739C421.107 414.516 429.161 408.175 435.396 400.242C441.631 392.309 445.868 383.014 447.754 373.129L448.3 370.24L451.029 371.594C460.129 376.109 468.137 379.72 476.236 382.88C495.374 390.355 515.41 395.332 535.84 397.687H538.661L537.66 400.396C536.919 402.597 535.728 404.623 534.162 406.348C532.597 408.072 530.689 409.458 528.56 410.418L336.645 493.392ZM213.07 445.901C225.496 445.901 237.895 447.05 250.106 449.332C281.797 455.381 311.622 468.708 337.191 488.245L526.376 406.987C528.728 405.955 530.721 404.26 532.109 402.111C512.382 399.568 493.04 394.656 474.507 387.485C467.136 384.596 459.674 381.255 451.575 377.282C449.14 387.506 444.341 397.026 437.557 405.092C430.773 413.157 422.191 419.546 412.49 423.753C402.789 427.96 392.234 429.87 381.66 429.332C371.086 428.794 360.784 425.822 351.567 420.652C342.351 415.482 334.473 408.255 328.557 399.543C322.641 390.831 318.849 380.873 317.481 370.456C316.113 360.039 317.206 349.449 320.674 339.524C324.143 329.598 329.891 320.61 337.464 313.269C325.491 307.517 313.038 302.805 300.246 299.184C256.551 288.295 210.606 290.271 168.026 304.872C156.998 308.447 146.182 312.637 135.63 317.422L192.595 446.894C199.42 446.262 206.245 445.901 213.07 445.901Z" fill="#3D3DFF"/>
  <path d="M249.744 451.408C230.382 447.911 210.613 447.211 191.05 449.332L223.445 523.096C224.238 524.93 225.387 526.59 226.828 527.982C228.268 529.374 229.971 530.47 231.839 531.208C233.707 531.946 235.704 532.312 237.714 532.283C239.725 532.254 241.71 531.832 243.556 531.041L336.647 490.773C311.181 471.089 281.416 457.606 249.744 451.408V451.408Z" fill="#00FFAC"/>
  <path d="M237.55 534.562C235.337 534.534 233.148 534.106 231.089 533.298C228.957 532.506 227.005 531.299 225.349 529.749C223.692 528.199 222.365 526.336 221.443 524.27L187.865 447.706H190.959C210.681 445.599 230.607 446.359 250.108 449.963C282.225 456.103 312.414 469.718 338.194 489.69L341.288 491.947L244.557 532.666C242.382 533.781 239.994 534.427 237.55 534.562V534.562ZM194.508 451.408L225.629 522.283C227.004 525.422 229.546 527.913 232.727 529.236C235.934 530.54 239.53 530.54 242.737 529.236L332.37 490.502C307.777 472.399 279.374 460.052 249.289 454.387C231.259 450.858 212.819 449.855 194.508 451.408V451.408Z" fill="#3D3DFF"/>
  <path d="M535.204 388.659L483.882 271.285H480.515C446.17 270.951 413.293 257.424 388.789 233.545C373.914 217.783 354.268 207.26 332.825 203.57C308.505 199.186 286.066 187.676 268.398 170.525C264.217 166.452 260.382 162.043 256.932 157.343L108.151 221.718C106.291 222.505 104.607 223.648 103.193 225.082C101.78 226.516 100.665 228.212 99.913 230.074C99.1608 231.935 98.7858 233.926 98.8097 235.931C98.8335 237.937 99.2555 239.918 100.052 241.761L132.811 315.977C144.088 310.788 155.665 306.266 167.481 302.434C210.52 287.768 256.92 285.792 301.066 296.746C314.977 300.592 328.502 305.7 341.47 312.005C344.765 309.117 348.33 306.547 352.116 304.33C363.065 298.023 375.611 294.973 388.258 295.547C400.905 296.12 413.118 300.292 423.441 307.564C433.764 314.836 441.759 324.902 446.474 336.56C451.189 348.217 452.423 360.975 450.03 373.31C458.311 377.463 466.683 381.345 475.419 384.776C494.748 392.261 514.961 397.267 535.568 399.674C536.834 396.085 536.705 392.157 535.204 388.659ZM182.86 263.25C179.039 265.429 174.653 266.436 170.256 266.144C165.858 265.851 161.647 264.272 158.154 261.606C154.661 258.939 152.042 255.306 150.629 251.163C149.217 247.021 149.073 242.557 150.217 238.334C151.36 234.111 153.739 230.319 157.054 227.437C160.369 224.555 164.47 222.712 168.839 222.142C173.209 221.571 177.651 222.299 181.604 224.232C185.557 226.165 188.844 229.218 191.05 233.003C192.529 235.519 193.491 238.301 193.88 241.188C194.269 244.074 194.077 247.009 193.315 249.822C192.554 252.635 191.238 255.27 189.443 257.575C187.648 259.88 185.411 261.808 182.86 263.25V263.25Z" fill="#FFFF58"/>
  <path d="M535.57 402.202C514.742 399.819 494.312 394.781 474.783 387.214C466.684 383.964 458.312 380.262 449.212 375.747C448.778 375.497 448.432 375.12 448.221 374.668C448.009 374.216 447.943 373.71 448.029 373.219C450.597 360.22 448.982 346.748 443.414 334.708C437.846 322.668 428.606 312.669 416.999 306.122C405.392 299.576 392.005 296.813 378.73 298.225C365.455 299.637 352.962 305.152 343.018 313.991C342.637 314.232 342.195 314.36 341.744 314.36C341.292 314.36 340.85 314.232 340.47 313.991C327.547 307.845 314.084 302.888 300.249 299.184C256.554 288.295 210.609 290.271 168.028 304.872C156.303 308.672 144.816 313.164 133.631 318.325C133.363 318.46 133.067 318.53 132.767 318.53C132.466 318.53 132.17 318.46 131.902 318.325C131.608 318.25 131.337 318.104 131.115 317.899C130.892 317.694 130.725 317.437 130.628 317.151L97.96 242.664C97.059 240.55 96.5947 238.278 96.5947 235.983C96.5947 233.688 97.059 231.416 97.96 229.302C99.6531 225.056 102.905 221.604 107.06 219.641L255.842 155.447C256.314 155.26 256.835 155.229 257.327 155.359C257.819 155.489 258.255 155.773 258.572 156.169C262.014 160.737 265.785 165.052 269.855 169.08C287.288 186.038 309.502 197.342 333.554 201.493C355.473 205.252 375.546 216.035 390.701 232.191C414.787 255.662 447.12 268.934 480.88 269.208C482.882 269.208 485.43 269.208 486.249 270.653L537.571 388.026C539.257 392.168 539.257 396.796 537.571 400.938C537.38 401.304 537.093 401.615 536.742 401.837C536.39 402.059 535.986 402.184 535.57 402.202V402.202ZM452.488 372.317C460.86 376.47 468.595 379.901 476.239 382.88C494.798 390.013 514.177 394.835 533.932 397.236C534.48 394.596 534.194 391.853 533.113 389.381L482.245 273.813H480.425C445.478 273.503 412.025 259.708 387.152 235.351C372.631 219.967 353.473 209.671 332.553 206.007C307.767 201.562 284.887 189.865 266.852 172.421C263.073 168.651 259.547 164.64 256.297 160.412L109.153 223.794C106.007 225.198 103.529 227.753 102.237 230.927C101.561 232.496 101.213 234.186 101.213 235.892C101.213 237.599 101.561 239.289 102.237 240.858L133.904 313.088C144.624 308.282 155.589 304.032 166.754 300.358C210.16 285.48 257 283.503 301.523 294.669C315.102 298.398 328.319 303.324 341.016 309.386C344.113 306.815 347.432 304.519 350.934 302.524C366.586 293.512 385.205 291.036 402.696 295.642C420.187 300.247 435.119 311.556 444.207 327.083C452.2 340.741 455.129 356.742 452.488 372.317V372.317ZM171.759 268.486C169.61 268.483 167.47 268.21 165.39 267.674C160.706 266.426 156.5 263.831 153.3 260.216C150.1 256.601 148.05 252.127 147.408 247.358C146.766 242.589 147.56 237.738 149.691 233.417C151.822 229.095 155.195 225.495 159.384 223.072C165.012 219.946 171.654 219.141 177.875 220.832C184.096 222.522 189.398 226.573 192.635 232.108C195.873 237.643 196.786 244.22 195.179 250.418C193.572 256.616 189.572 261.938 184.044 265.236V265.236C180.308 267.37 176.071 268.491 171.759 268.486ZM171.759 224.245C168.242 224.268 164.792 225.202 161.75 226.954C159.499 228.269 157.534 230.017 155.972 232.094C154.41 234.172 153.28 236.537 152.65 239.053C151.747 242.223 151.654 245.567 152.378 248.782C153.102 251.998 154.62 254.984 156.797 257.472C158.974 259.96 161.74 261.872 164.847 263.035C167.954 264.199 171.303 264.577 174.594 264.136C177.885 263.695 181.013 262.449 183.698 260.51C186.383 258.571 188.539 256 189.973 253.028C191.407 250.057 192.073 246.778 191.912 243.487C191.75 240.196 190.767 236.997 189.049 234.177C187.274 231.163 184.737 228.662 181.689 226.92C178.64 225.178 175.186 224.256 171.668 224.245H171.759Z" fill="#3D3DFF"/>
  <path d="M442.293 328.437C437.95 320.995 432.173 314.476 425.29 309.25C418.408 304.024 410.555 300.195 402.18 297.982C393.806 295.768 385.074 295.214 376.483 296.349C367.892 297.485 359.612 300.289 352.113 304.601C348.327 306.818 344.762 309.388 341.467 312.276C332.12 320.493 325.315 331.173 321.844 343.075C318.373 354.977 318.378 367.613 321.858 379.512C325.339 391.412 332.151 402.087 341.505 410.297C350.858 418.507 362.368 423.914 374.696 425.89C387.024 427.866 399.665 426.33 411.148 421.46C422.631 416.59 432.485 408.587 439.565 398.38C446.645 388.173 450.659 376.182 451.142 363.8C451.625 351.419 448.556 339.156 442.293 328.437V328.437Z" fill="#7892FF"/>
  <path d="M385.333 428.927C371.47 428.968 357.924 424.819 346.496 417.033C335.068 409.247 326.301 398.193 321.361 385.342C316.422 372.491 315.543 358.452 318.843 345.093C322.143 331.734 329.464 319.689 339.834 310.56C343.278 307.603 346.995 304.973 350.935 302.705C366.587 293.693 385.206 291.217 402.697 295.822C420.188 300.428 435.12 311.737 444.208 327.263V327.263C450.215 337.55 453.387 349.224 453.404 361.112C453.422 373 450.285 384.683 444.309 394.987C438.332 405.291 429.727 413.852 419.359 419.81C408.99 425.767 397.223 428.912 385.242 428.927H385.333ZM385.333 298.01C374.186 298.099 363.258 301.089 353.64 306.68C344.022 312.272 336.052 320.27 330.526 329.875C324.999 339.48 322.11 350.356 322.146 361.416C322.183 372.476 325.144 383.333 330.734 392.902C334.652 400.564 340.104 407.352 346.756 412.853C353.408 418.354 361.12 422.451 369.422 424.894C377.724 427.338 386.441 428.076 395.04 427.064C403.639 426.052 411.94 423.312 419.435 419.009C426.93 414.707 433.463 408.933 438.634 402.042C443.804 395.15 447.504 387.284 449.508 378.926C451.511 370.567 451.776 361.891 450.286 353.427C448.796 344.964 445.582 336.891 440.841 329.701V329.701C436.681 322.508 431.118 316.209 424.478 311.171C417.838 306.133 410.254 302.457 402.167 300.358C396.632 298.786 390.908 297.966 385.151 297.92L385.333 298.01Z" fill="#3D3DFF"/>
  <path d="M171.665 266.229C183.978 266.229 193.959 256.326 193.959 244.109C193.959 231.892 183.978 221.989 171.665 221.989C159.352 221.989 149.37 231.892 149.37 244.109C149.37 256.326 159.352 266.229 171.665 266.229Z" fill="#00FFAC"/>
  <path d="M171.759 268.486C169.609 268.483 167.469 268.21 165.389 267.673C160.705 266.426 156.499 263.831 153.299 260.216C150.099 256.601 148.049 252.127 147.407 247.358C146.765 242.589 147.559 237.738 149.691 233.417C151.822 229.095 155.194 225.495 159.383 223.072C162.636 221.089 166.309 219.885 170.112 219.557C173.915 219.228 177.743 219.783 181.292 221.178C184.842 222.573 188.014 224.769 190.559 227.593C193.104 230.416 194.95 233.789 195.952 237.444C196.954 241.099 197.084 244.935 196.331 248.649C195.579 252.362 193.964 255.85 191.616 258.837C189.268 261.823 186.251 264.226 182.804 265.853C179.357 267.481 175.575 268.29 171.759 268.215V268.486ZM171.759 224.245C168.241 224.268 164.791 225.202 161.749 226.954C159.498 228.269 157.534 230.017 155.971 232.094C154.409 234.171 153.279 236.537 152.649 239.052C151.746 242.223 151.653 245.567 152.377 248.782C153.101 251.997 154.62 254.984 156.796 257.472C158.973 259.96 161.739 261.872 164.846 263.035C167.953 264.198 171.302 264.577 174.593 264.136C177.884 263.695 181.013 262.449 183.697 260.51C186.382 258.571 188.538 256 189.972 253.028C191.406 250.056 192.072 246.777 191.911 243.487C191.75 240.196 190.766 236.997 189.048 234.177C187.273 231.163 184.736 228.662 181.688 226.92C178.639 225.178 175.185 224.256 171.668 224.245H171.759Z" fill="#3D3DFF"/>
  <path d="M519.102 481.91L515.804 474.602L499.044 472.57L508.608 458.657L505.31 451.349L491.604 472.995L493.803 477.867L519.102 481.91Z" fill="#3D3DFF"/>
  <path d="M523.12 480.096L529.198 477.354L531.243 439.645L525.166 442.388L523.12 480.096Z" fill="#3D3DFF"/>
  <path d="M549.257 468.301L562.963 446.655L560.764 441.783L535.465 437.74L538.763 445.048L555.523 447.08L545.959 460.993L549.257 468.301Z" fill="#3D3DFF"/>
</svg>